<svg width="56" height="41" viewBox="0 0 56 41" fill="none" xmlns="http://www.w3.org/2000/svg">
<path fill-rule="evenodd" clip-rule="evenodd" d="M25.6498 38.6216C25.7917 38.641 25.9319 38.6587 26.0739 38.6781C26.3146 38.3066 26.6022 37.958 26.7872 37.5599C27.8133 35.3533 28.8284 33.1415 29.8186 30.9191C30.1421 30.1953 30.5787 29.8963 31.4394 29.9034C36.8264 29.9512 42.2154 29.9352 47.6042 29.9246C49.4244 29.9211 51.074 29.2735 52.296 28.0189C55.7225 24.4994 54.224 19.0671 49.7569 17.6993C48.7003 17.3774 47.5054 17.5136 46.3823 17.3809C46.1236 17.349 45.7228 17.1101 45.6833 16.9084C45.5629 16.298 45.5756 15.6574 45.5557 15.0275C45.4336 11.0833 41.5666 7.61348 37.8883 7.66295C36.3683 7.68415 34.8534 8.03992 33.1985 8.26102C30.7942 3.49233 26.816 0.843465 21.163 2.19358C15.2117 3.6126 13.0158 8.02742 13.1596 13.7729C12.8164 13.7729 12.5487 13.8296 12.3168 13.7641C9.7797 13.0564 7.49398 13.5872 5.3413 15.0204C1.10066 17.8409 0.529195 23.8943 4.3441 27.5023C6.96571 29.9777 10.2343 30.098 13.6753 29.8663C14.155 27.8597 14.597 25.8636 15.111 23.8837C15.9017 20.8384 16.6617 17.7825 17.5943 14.778C18.0076 13.4438 18.6599 12.1221 19.4757 10.9807C20.2609 9.88008 21.9967 10.1544 22.2249 11.3293C22.7424 13.9818 23.1719 16.6536 23.542 19.3309C23.781 21.0614 23.8368 22.8167 24.0057 24.5596C24.2752 27.3342 24.5429 30.1104 24.8609 32.8832C25.082 34.8013 25.3839 36.7087 25.6498 38.6216ZM11.4274 11.547C11.7688 5.64396 15.7219 1.35307 20.8971 0.291324C26.1259 -0.782655 31.0783 1.0912 34.2335 6.2722C37.3925 5.30245 40.3537 5.77496 43.1138 7.61525C45.9134 9.48027 47.2305 12.1503 47.5143 15.4486C49.5736 15.6468 51.5412 16.0361 53.1009 17.4392C54.5905 18.7805 55.6237 20.3872 55.9058 22.4044C56.4197 26.099 54.8044 28.8134 51.7137 30.666C50.7128 31.2659 49.3814 31.5615 48.1936 31.5844C43.1641 31.6835 38.1309 31.657 33.1015 31.6003C32.0647 31.5879 31.5275 32.0056 31.1159 32.8319C29.9713 35.1287 28.8662 37.4484 27.63 39.6956C26.9382 40.9555 25.8546 41.3217 25.0208 40.7113C24.5932 40.3982 24.1601 39.8761 24.0595 39.3842C23.6121 37.206 23.206 35.0154 22.9311 32.8106C22.5681 29.9016 22.3273 26.9803 22.0596 24.0588C21.8224 21.4843 21.6553 18.9027 21.3875 16.3298C21.2582 15.1001 20.9635 13.8844 20.7443 12.6617C20.6455 12.637 20.5483 12.6139 20.4513 12.5891C19.7631 14.6028 19.039 16.6058 18.3994 18.6336C18.0363 19.7856 17.801 20.9782 17.5206 22.1549C16.8702 24.8799 16.182 27.596 15.6051 30.3369C15.3914 31.3561 14.9745 31.71 13.9034 31.6517C11.4975 31.5207 9.06085 31.8622 6.71234 31.004C3.81749 29.9512 1.60561 28.0384 0.644289 25.232C-1.35204 19.4104 1.39529 13.8349 7.43823 11.9893C8.66561 11.6142 10.0367 11.6886 11.4274 11.547Z" fill="white"/>
</svg>
